<?xml version="1.0" standalone="no"?>
<!DOCTYPE svg PUBLIC "-//W3C//DTD SVG 20010904//EN"
 "http://www.w3.org/TR/2001/REC-SVG-20010904/DTD/svg10.dtd">
<svg version="1.0" xmlns="http://www.w3.org/2000/svg"
 width="203.000000pt" height="203.000000pt" viewBox="0 0 203.000000 203.000000"
 preserveAspectRatio="xMidYMid meet">
<metadata>
Created by potrace 1.11, written by Peter Selinger 2001-2013
</metadata>
<g transform="translate(0.000000,203.000000) scale(0.100000,-0.100000)"
fill="#000000" stroke="none">
<path d="M263 1385 c-125 -39 -213 -134 -249 -270 -46 -170 37 -360 190 -435
81 -40 153 -48 231 -25 107 31 175 92 229 205 28 58 31 75 31 160 0 85 -3 102
-31 160 -17 36 -43 80 -59 98 -83 99 -227 144 -342 107z m-40 -195 c32 -20 48
-38 52 -57 4 -15 11 -37 18 -48 6 -11 22 -40 34 -64 32 -61 52 -81 82 -81 39
-1 108 -35 121 -62 12 -21 10 -21 -17 5 -20 19 -47 30 -84 36 -78 13 -87 19
-115 66 -29 50 -62 75 -100 75 -17 0 -39 13 -65 38 -93 93 -37 163 74 92z"/>
<path d="M760 1165 c0 -3 -13 -82 -30 -175 -16 -93 -30 -174 -30 -180 0 -6 27
-10 64 -10 l65 0 3 33 c2 24 8 33 25 35 18 3 23 -3 29 -32 l6 -36 64 0 63 0
-6 33 c-4 17 -21 100 -38 182 l-31 150 -92 3 c-51 1 -92 0 -92 -3z m113 -182
c5 -48 4 -53 -13 -53 -22 0 -24 16 -13 95 7 56 16 41 26 -42z"/>
<path d="M1563 950 c-21 -8 -23 -16 -23 -74 0 -68 6 -76 56 -76 36 0 64 18 64
40 0 15 -7 20 -25 20 -16 0 -25 -6 -25 -15 0 -8 -4 -15 -10 -15 -5 0 -10 23
-10 51 0 31 4 48 10 44 6 -3 10 -13 10 -21 0 -8 10 -14 25 -14 32 0 34 33 3
54 -25 18 -42 19 -75 6z"/>
<path d="M1230 936 c0 -8 -8 -12 -23 -9 -34 7 -49 -18 -45 -74 l3 -48 58 -2
57 -3 0 75 c0 73 -1 75 -25 75 -14 0 -25 -6 -25 -14z m0 -72 c0 -27 -4 -43
-10 -39 -17 11 -11 85 7 85 2 0 3 -21 3 -46z"/>
<path d="M1030 865 c0 -63 1 -65 25 -65 24 0 25 3 25 55 0 30 5 55 10 55 6 0
10 -25 10 -55 0 -52 1 -55 25 -55 25 0 26 1 23 63 l-3 62 -57 2 -58 2 0 -64z"/>
<path d="M1310 865 c0 -63 1 -65 25 -65 22 0 25 4 25 39 0 25 5 41 15 45 8 3
15 14 15 24 0 15 -8 19 -40 20 l-40 2 0 -65z"/>
<path d="M1412 918 c-18 -18 -15 -105 4 -112 34 -13 83 -6 94 13 15 29 12 77
-6 95 -18 19 -75 21 -92 4z m58 -53 c0 -19 -4 -37 -10 -40 -6 -4 -10 12 -10
40 0 28 4 44 10 40 6 -3 10 -21 10 -40z"/>
<path d="M1692 918 c-19 -19 -14 -38 11 -39 l22 0 -23 -11 c-17 -8 -22 -19
-20 -37 3 -24 7 -26 56 -29 l52 -3 0 59 c0 45 -4 61 -16 66 -26 10 -69 7 -82
-6z m45 -30 c-3 -8 -6 -5 -6 6 -1 11 2 17 5 13 3 -3 4 -12 1 -19z m0 -60 c-3
-7 -5 -2 -5 12 0 14 2 19 5 13 2 -7 2 -19 0 -25z"/>
<path d="M1810 865 c0 -63 1 -65 25 -65 22 0 25 4 25 39 0 25 5 41 15 45 8 3
15 13 15 23 0 14 -9 19 -40 21 l-40 2 0 -65z"/>
<path d="M1916 914 c-9 -8 -16 -31 -16 -49 0 -18 7 -41 16 -49 18 -19 75 -21
92 -4 20 20 14 38 -13 38 -16 0 -25 -6 -25 -16 0 -8 -4 -12 -10 -9 -24 15 -9
35 25 35 31 0 35 3 35 25 0 42 -72 62 -104 29z m54 -20 c0 -8 -5 -12 -10 -9
-6 4 -8 11 -5 16 9 14 15 11 15 -7z"/>
</g>
</svg>
